<svg width="554" height="554" viewBox="0 0 554 554" fill="none" xmlns="http://www.w3.org/2000/svg">
<rect width="554" height="554" fill="white"/>
<path d="M155.571 105.593L30.3465 169.552L102.83 196.482V312.954L95.4473 345.271H122.964L116.253 312.954L114.91 163.492H127.662V206.581L168.602 221.392C167.931 206.132 166.991 175.072 168.602 172.918C170.615 170.225 235.032 153.394 240.401 154.74C240.401 152.047 241.074 142.622 242.421 140.602L155.571 105.593Z" fill="#FF3D00"/>
<path d="M243.094 141.948L155.571 105.593L275.41 45L524.514 165.512L375.052 216.006V171.571L300.994 155.413C298.974 117.711 255.213 116.365 243.094 141.948Z" fill="#0047FF"/>
<path d="M265.985 185.036C251.847 185.036 240.401 166.185 240.401 153.394C222.897 156.087 189.907 163.492 167.69 171.571C164.997 185.036 169.036 232.837 169.036 294.777C228.821 298.008 258.579 348.188 265.985 372.874L265.985 185.036Z" fill="#DA8C19"/>
<path d="M300.994 155.413C300.994 174.264 283.489 184.363 278.103 184.363C278.103 230.818 277.43 332.344 277.43 372.201C304.36 308.646 354.405 290.962 375.725 291.41V171.571C364.055 169.103 331.29 160.126 300.994 155.413Z" fill="#26D32D"/>
<circle cx="270.698" cy="154.74" r="30.2964" stroke="black" stroke-width="2.69301"/>
<path d="M134.218 411.88C134.218 413.49 134.138 415.127 133.977 416.791C133.816 418.401 133.494 419.985 133.011 421.542C132.527 423.045 131.803 424.494 130.837 425.889C129.87 427.231 128.555 428.412 126.891 429.432C126.086 429.969 125.12 430.425 123.993 430.801C122.919 431.123 121.765 431.391 120.53 431.606C119.35 431.875 118.169 432.036 116.988 432.089C115.807 432.197 114.706 432.223 113.687 432.17C108.856 432.009 104.937 430.855 101.931 428.708C98.9789 426.507 96.6976 423.796 95.0873 420.575C93.5307 417.355 92.5108 413.866 92.0277 410.108C91.5983 406.297 91.5178 402.674 91.7861 399.239C91.9472 397.199 92.2961 394.998 92.8329 392.636C93.4233 390.274 94.2553 387.993 95.3289 385.792C96.4561 383.592 97.8249 381.605 99.4352 379.834C101.099 378.063 103.058 376.721 105.313 375.808C107.406 374.949 109.688 374.413 112.157 374.198C114.68 373.93 117.149 374.01 119.564 374.44C122.033 374.869 124.315 375.647 126.408 376.774C128.555 377.902 130.246 379.405 131.481 381.283C132.34 382.679 133.011 384.37 133.494 386.356C133.977 388.342 134.057 390.248 133.735 392.073C133.467 393.683 132.903 394.81 132.044 395.454C131.186 396.045 130.246 396.286 129.226 396.179C128.206 396.018 127.213 395.588 126.247 394.891C125.335 394.139 124.717 393.2 124.395 392.073C124.02 390.838 123.563 389.711 123.027 388.691C122.49 387.617 121.658 386.732 120.53 386.034C119.242 385.229 117.873 384.772 116.424 384.665C115.029 384.558 113.66 384.719 112.318 385.148C111.03 385.578 109.795 386.249 108.614 387.161C107.487 388.074 106.547 389.12 105.796 390.301C104.883 391.643 104.186 393.119 103.703 394.73C103.219 396.286 102.871 397.923 102.656 399.641C102.441 401.305 102.361 402.996 102.414 404.714C102.522 406.378 102.736 407.988 103.058 409.545C103.649 412.175 104.561 414.644 105.796 416.952C106.279 417.811 106.923 418.589 107.728 419.287C108.587 419.931 109.527 420.468 110.546 420.897C111.566 421.273 112.64 421.515 113.767 421.622C114.894 421.729 115.968 421.649 116.988 421.381C118.437 421.005 119.618 420.522 120.53 419.931C121.443 419.287 122.168 418.536 122.704 417.677C123.241 416.818 123.59 415.879 123.751 414.859C123.966 413.839 124.073 412.765 124.073 411.638V411.558C123.375 411.558 122.758 411.558 122.221 411.558C121.685 411.504 121.282 411.477 121.014 411.477C119.833 411.477 118.679 411.262 117.551 410.833C116.585 410.511 115.861 410.001 115.377 409.303C114.841 408.713 114.572 407.988 114.572 407.129C114.572 406.807 114.572 406.512 114.572 406.243C114.626 405.921 114.68 405.599 114.733 405.277C114.894 404.848 115.243 404.311 115.78 403.667C116.102 403.399 116.612 403.184 117.31 403.023C117.632 402.915 117.954 402.835 118.276 402.781C118.598 402.674 118.974 402.593 119.403 402.54C119.725 402.486 120.074 402.459 120.45 402.459C120.826 402.459 121.201 402.459 121.577 402.459H128.904C129.495 402.406 130.166 402.486 130.917 402.701C131.722 402.862 132.34 403.13 132.769 403.506C132.93 403.721 133.091 403.935 133.252 404.15C133.413 404.365 133.547 404.606 133.655 404.875C133.869 405.465 134.004 406.056 134.057 406.646C134.111 406.968 134.138 407.317 134.138 407.693C134.191 408.015 134.218 408.31 134.218 408.578V411.88ZM177.647 395.132C178.13 395.884 178.345 396.689 178.291 397.548C178.291 398.782 178.076 399.856 177.647 400.768C177.539 401.037 177.378 401.386 177.164 401.815C177.003 402.245 176.815 402.701 176.6 403.184C176.439 403.667 176.251 404.123 176.036 404.553C175.822 404.982 175.661 405.304 175.553 405.519L175.392 405.921C174.641 407.585 173.916 409.196 173.218 410.752C172.521 412.309 171.742 413.973 170.883 415.744C170.025 417.462 169.193 419.153 168.387 420.817C167.636 422.427 166.884 424.011 166.133 425.567C165.918 425.997 165.73 426.426 165.569 426.856C165.408 427.231 165.194 427.634 164.925 428.063L161.06 436.357C160.363 437.752 159.692 439.121 159.048 440.463C158.457 441.805 157.786 443.147 157.035 444.489C156.874 444.757 156.713 444.999 156.552 445.213C156.444 445.482 156.337 445.75 156.229 446.019C155.854 446.663 155.29 447.28 154.539 447.87C153.841 448.515 153.089 448.864 152.284 448.917C150.835 449.025 149.573 448.595 148.5 447.629C147.856 447.253 147.346 446.716 146.97 446.019C146.755 445.535 146.648 444.918 146.648 444.167C146.702 443.845 146.729 443.523 146.729 443.201C146.782 442.932 146.836 442.664 146.89 442.395C146.997 442.127 147.077 441.859 147.131 441.59C147.185 441.322 147.265 441.107 147.373 440.946C147.534 440.517 147.668 440.302 147.775 440.302L153.653 427.58C153.385 426.99 153.116 426.399 152.848 425.809C152.579 425.165 152.338 424.601 152.123 424.118C151.425 422.454 150.674 420.71 149.869 418.885C149.117 417.006 148.339 415.154 147.534 413.329C146.729 411.45 145.897 409.625 145.038 407.854C144.179 406.082 143.32 404.392 142.461 402.781C142.139 402.245 141.844 401.681 141.575 401.09C141.307 400.446 141.092 399.829 140.931 399.239C140.77 398.594 140.717 397.95 140.77 397.306C140.824 396.662 141.066 396.018 141.495 395.374C141.924 394.569 142.488 394.005 143.186 393.683C143.884 393.307 144.608 393.146 145.36 393.2C146.165 393.2 146.916 393.361 147.614 393.683C148.312 394.005 148.876 394.434 149.305 394.971C150.218 395.937 150.942 397.011 151.479 398.192C152.016 399.373 152.526 400.581 153.009 401.815C154.029 403.962 155.075 406.217 156.149 408.578C157.222 410.94 158.296 413.248 159.37 415.503L163.556 406.646C163.986 405.787 164.362 404.955 164.684 404.15C165.059 403.345 165.435 402.567 165.811 401.815C166.24 400.903 166.643 399.963 167.019 398.997C167.448 398.031 167.931 397.145 168.468 396.34C168.575 396.125 168.683 395.937 168.79 395.776C168.897 395.615 169.005 395.427 169.112 395.213C169.595 394.569 170.025 394.059 170.4 393.683C170.669 393.468 170.883 393.307 171.044 393.2C171.259 393.039 171.501 392.931 171.769 392.878C172.145 392.77 172.494 392.717 172.816 392.717C173.192 392.663 173.54 392.663 173.863 392.717C174.399 392.878 175.043 393.119 175.795 393.441C176.6 393.763 177.217 394.327 177.647 395.132ZM190.762 397.145C192.372 396.34 194.063 395.776 195.834 395.454C197.605 395.079 199.35 394.998 201.068 395.213C202.839 395.374 204.53 395.83 206.14 396.582C207.751 397.279 209.253 398.299 210.649 399.641C212.045 401.037 213.118 402.567 213.87 404.231C214.621 405.895 215.158 407.746 215.48 409.786C215.695 411.182 216.044 412.47 216.527 413.651C217.01 414.832 217.52 416.013 218.057 417.194C218.647 418.375 219.184 419.556 219.667 420.736C220.204 421.917 220.633 423.152 220.955 424.44C221.224 425.675 221.116 426.883 220.633 428.063C220.204 429.191 219.291 429.888 217.896 430.157C217.09 430.318 216.312 430.264 215.561 429.996C214.863 429.674 214.219 429.244 213.628 428.708C213.038 428.117 212.501 427.5 212.018 426.856C211.588 426.158 211.186 425.514 210.81 424.923C209.576 426.534 208.234 427.795 206.784 428.708C205.335 429.566 203.591 430.13 201.551 430.398C199.833 430.613 198.196 430.667 196.639 430.559C195.083 430.452 193.419 430.157 191.647 429.674C189.339 429.083 187.434 428.063 185.931 426.614C184.481 425.111 183.354 423.393 182.549 421.461C181.797 419.475 181.395 417.355 181.341 415.1C181.287 412.846 181.556 410.618 182.146 408.417C182.898 405.519 184.025 403.157 185.528 401.332C187.031 399.507 188.775 398.111 190.762 397.145ZM192.774 406.566C192.023 407.317 191.433 408.203 191.003 409.223C190.574 410.242 190.305 411.316 190.198 412.443C190.144 413.57 190.252 414.698 190.52 415.825C190.788 416.952 191.218 417.945 191.808 418.804C192.345 419.556 193.258 420.2 194.546 420.736C195.834 421.22 197.176 421.515 198.572 421.622C200.182 421.729 201.578 421.3 202.759 420.334C203.993 419.368 204.906 418.16 205.496 416.711C206.14 415.208 206.435 413.624 206.382 411.96C206.328 410.242 205.872 408.686 205.013 407.29C204.369 406.27 203.51 405.519 202.436 405.036C201.417 404.553 200.316 404.311 199.135 404.311C197.954 404.257 196.773 404.445 195.593 404.875C194.465 405.25 193.526 405.814 192.774 406.566ZM227.734 402.298C227.734 401.064 227.707 399.748 227.654 398.353C227.654 396.957 227.895 395.696 228.378 394.569C228.808 393.549 229.506 392.824 230.472 392.395C231.492 391.912 232.485 391.804 233.451 392.073C234.417 392.234 235.169 392.529 235.705 392.958C236.242 393.388 236.618 393.898 236.833 394.488C237.101 395.025 237.262 395.669 237.316 396.42C237.369 397.118 237.423 397.816 237.477 398.514C238.014 397.548 238.685 396.769 239.49 396.179C240.295 395.588 241.127 395.105 241.986 394.73C242.845 394.354 243.65 394.086 244.401 393.924C245.206 393.763 245.824 393.683 246.253 393.683C248.293 393.683 250.306 394.139 252.292 395.052C254.332 395.911 256.022 397.145 257.364 398.755C258.116 399.722 258.679 400.742 259.055 401.815C259.485 402.835 259.78 403.909 259.941 405.036C260.156 406.163 260.29 407.317 260.343 408.498C260.397 409.625 260.451 410.779 260.504 411.96C260.773 415.396 260.773 418.804 260.504 422.186C260.451 422.884 260.424 423.689 260.424 424.601C260.424 425.514 260.343 426.426 260.182 427.339C260.075 428.198 259.834 428.976 259.458 429.674C259.136 430.318 258.572 430.72 257.767 430.882C256.64 431.15 255.7 431.204 254.949 431.043C254.251 430.935 253.687 430.694 253.258 430.318C252.829 429.942 252.507 429.459 252.292 428.869C252.077 428.278 251.889 427.607 251.728 426.856C251.621 426.265 251.513 425.594 251.406 424.843C251.352 424.038 251.299 423.232 251.245 422.427C251.245 421.622 251.218 420.844 251.165 420.092C251.165 419.287 251.165 418.562 251.165 417.918C251.165 416.898 251.138 415.771 251.084 414.537C251.03 413.302 251.03 412.148 251.084 411.074C251.084 408.552 250.413 406.646 249.071 405.358C247.783 404.016 246.012 403.452 243.757 403.667C242.039 403.882 240.536 404.579 239.248 405.76C237.96 406.888 237.343 408.364 237.396 410.189C237.396 410.887 237.396 411.531 237.396 412.121C237.396 412.712 237.369 413.302 237.316 413.893C237.316 414.483 237.316 415.127 237.316 415.825C237.316 416.523 237.316 417.301 237.316 418.16C237.316 419.931 237.316 421.81 237.316 423.796C237.316 425.728 237.074 427.312 236.591 428.547C236.162 429.835 235.437 430.72 234.417 431.204C233.397 431.687 232.19 431.552 230.794 430.801C230.203 430.479 229.72 430.05 229.345 429.513C229.023 428.922 228.754 428.305 228.539 427.661C228.378 427.017 228.271 426.373 228.217 425.728C228.164 425.031 228.11 424.387 228.056 423.796C227.895 422.025 227.788 420.388 227.734 418.885C227.734 417.328 227.734 415.664 227.734 413.893V402.298Z" fill="#DA8C19"/>
<path d="M330.713 411.88C330.713 413.49 330.632 415.127 330.471 416.791C330.31 418.401 329.988 419.985 329.505 421.542C329.022 423.045 328.297 424.494 327.331 425.889C326.365 427.231 325.05 428.412 323.386 429.432C322.581 429.969 321.615 430.425 320.487 430.801C319.414 431.123 318.26 431.391 317.025 431.606C315.844 431.875 314.663 432.036 313.482 432.089C312.301 432.197 311.201 432.223 310.181 432.17C305.35 432.009 301.432 430.855 298.426 428.708C295.474 426.507 293.192 423.796 291.582 420.575C290.025 417.355 289.005 413.866 288.522 410.108C288.093 406.297 288.012 402.674 288.281 399.239C288.442 397.199 288.791 394.998 289.327 392.636C289.918 390.274 290.75 387.993 291.823 385.792C292.951 383.592 294.319 381.605 295.93 379.834C297.594 378.063 299.553 376.721 301.808 375.808C303.901 374.949 306.182 374.413 308.651 374.198C311.174 373.93 313.643 374.01 316.059 374.44C318.528 374.869 320.809 375.647 322.903 376.774C325.05 377.902 326.741 379.405 327.975 381.283C328.834 382.679 329.505 384.37 329.988 386.356C330.471 388.342 330.552 390.248 330.23 392.073C329.961 393.683 329.398 394.81 328.539 395.454C327.68 396.045 326.741 396.286 325.721 396.179C324.701 396.018 323.708 395.588 322.742 394.891C321.829 394.139 321.212 393.2 320.89 392.073C320.514 390.838 320.058 389.711 319.521 388.691C318.984 387.617 318.152 386.732 317.025 386.034C315.737 385.229 314.368 384.772 312.919 384.665C311.523 384.558 310.154 384.719 308.812 385.148C307.524 385.578 306.29 386.249 305.109 387.161C303.981 388.074 303.042 389.12 302.291 390.301C301.378 391.643 300.68 393.119 300.197 394.73C299.714 396.286 299.365 397.923 299.15 399.641C298.936 401.305 298.855 402.996 298.909 404.714C299.016 406.378 299.231 407.988 299.553 409.545C300.144 412.175 301.056 414.644 302.291 416.952C302.774 417.811 303.418 418.589 304.223 419.287C305.082 419.931 306.021 420.468 307.041 420.897C308.061 421.273 309.135 421.515 310.262 421.622C311.389 421.729 312.463 421.649 313.482 421.381C314.932 421.005 316.113 420.522 317.025 419.931C317.938 419.287 318.662 418.536 319.199 417.677C319.736 416.818 320.085 415.879 320.246 414.859C320.46 413.839 320.568 412.765 320.568 411.638V411.558C319.87 411.558 319.253 411.558 318.716 411.558C318.179 411.504 317.777 411.477 317.508 411.477C316.327 411.477 315.173 411.262 314.046 410.833C313.08 410.511 312.355 410.001 311.872 409.303C311.335 408.713 311.067 407.988 311.067 407.129C311.067 406.807 311.067 406.512 311.067 406.243C311.121 405.921 311.174 405.599 311.228 405.277C311.389 404.848 311.738 404.311 312.275 403.667C312.597 403.399 313.107 403.184 313.804 403.023C314.127 402.915 314.449 402.835 314.771 402.781C315.093 402.674 315.468 402.593 315.898 402.54C316.22 402.486 316.569 402.459 316.945 402.459C317.32 402.459 317.696 402.459 318.072 402.459H325.399C325.989 402.406 326.66 402.486 327.412 402.701C328.217 402.862 328.834 403.13 329.264 403.506C329.425 403.721 329.586 403.935 329.747 404.15C329.908 404.365 330.042 404.606 330.149 404.875C330.364 405.465 330.498 406.056 330.552 406.646C330.606 406.968 330.632 407.317 330.632 407.693C330.686 408.015 330.713 408.31 330.713 408.578V411.88ZM370.277 411.88C370.169 413.651 370.062 415.449 369.955 417.274C369.847 419.046 369.552 420.763 369.069 422.427C368.639 424.091 367.942 425.594 366.975 426.936C366.063 428.278 364.748 429.352 363.03 430.157C361.527 430.908 359.917 431.418 358.199 431.687C356.482 432.009 354.764 432.143 353.046 432.089C351.328 432.036 349.664 431.767 348.054 431.284C346.444 430.855 344.994 430.237 343.706 429.432C342.418 428.627 341.371 427.58 340.566 426.292C339.761 425.004 339.117 423.608 338.634 422.105C338.204 420.602 337.909 419.046 337.748 417.435C337.587 415.825 337.48 414.322 337.426 412.926C337.211 409.223 337.211 405.573 337.426 401.976C337.426 401.278 337.426 400.5 337.426 399.641C337.426 398.729 337.48 397.843 337.587 396.984C337.748 396.125 337.99 395.347 338.312 394.649C338.634 393.898 339.17 393.334 339.922 392.958C341.532 392.099 343.008 392.046 344.35 392.797C345.746 393.549 346.578 395.105 346.846 397.467C347.007 398.702 347.061 400.071 347.007 401.574C347.007 403.077 347.061 404.445 347.168 405.68C347.222 407.505 347.276 409.491 347.329 411.638C347.383 413.732 347.678 415.61 348.215 417.274C348.806 418.938 349.745 420.2 351.033 421.059C352.375 421.864 354.361 421.891 356.991 421.139C358.226 420.763 359.031 419.824 359.407 418.321C359.836 416.818 360.051 414.59 360.051 411.638C360.051 410.35 360.024 408.927 359.971 407.371C359.917 405.814 359.89 404.284 359.89 402.781C359.89 401.225 359.917 399.802 359.971 398.514C360.078 397.172 360.239 396.152 360.454 395.454C360.722 394.488 361.286 393.763 362.144 393.28C363.003 392.797 363.916 392.556 364.882 392.556C365.848 392.502 366.761 392.69 367.62 393.119C368.478 393.549 369.069 394.247 369.391 395.213C369.713 396.072 369.928 397.172 370.035 398.514C370.196 399.802 370.303 401.225 370.357 402.781C370.411 404.284 370.411 405.841 370.357 407.451C370.357 409.008 370.33 410.484 370.277 411.88ZM376.973 402.54C376.973 401.896 376.973 401.171 376.973 400.366C376.973 399.507 377 398.648 377.053 397.789C377.107 396.877 377.187 396.018 377.295 395.213C377.456 394.354 377.671 393.602 377.939 392.958C378.368 391.992 379.039 391.348 379.952 391.026C380.864 390.65 381.857 390.489 382.931 390.543C384.058 390.543 384.944 390.731 385.588 391.106C386.232 391.482 386.715 391.992 387.037 392.636C387.359 393.227 387.547 393.924 387.601 394.73C387.708 395.481 387.762 396.286 387.762 397.145C388.245 396.286 388.889 395.588 389.694 395.052C390.553 394.515 391.412 394.086 392.271 393.763C393.13 393.441 393.908 393.227 394.606 393.119C395.304 392.958 395.706 392.878 395.814 392.878C397.155 392.77 398.363 392.744 399.437 392.797C400.564 392.851 401.799 393.092 403.141 393.522C403.999 393.844 404.885 394.3 405.798 394.891C406.71 395.427 407.515 396.072 408.213 396.823C408.911 397.575 409.367 398.407 409.582 399.319C409.85 400.178 409.743 401.09 409.26 402.057C408.508 403.399 407.676 404.07 406.764 404.07C405.851 404.016 404.858 403.855 403.785 403.586C403.194 403.479 402.496 403.238 401.691 402.862C400.886 402.486 400.188 402.245 399.598 402.137C397.773 401.869 396.162 402.003 394.767 402.54C393.371 403.077 392.163 403.721 391.144 404.472C389.963 405.385 388.943 406.431 388.084 407.612V419.207C388.084 420.656 388.057 422.159 388.003 423.716C388.003 425.272 387.789 426.695 387.359 427.983C386.984 429.218 386.313 430.237 385.346 431.043C384.434 431.794 383.092 432.116 381.321 432.009C380.354 431.955 379.496 431.499 378.744 430.64C377.993 429.727 377.536 428.842 377.375 427.983C377.268 427.178 377.187 426.212 377.134 425.084C377.08 423.957 377.026 422.776 376.973 421.542C376.973 420.307 376.973 419.072 376.973 417.838C376.973 416.55 376.973 415.369 376.973 414.295V402.54ZM449.299 411.88C449.192 413.651 449.084 415.449 448.977 417.274C448.87 419.046 448.574 420.763 448.091 422.427C447.662 424.091 446.964 425.594 445.998 426.936C445.085 428.278 443.77 429.352 442.053 430.157C440.55 430.908 438.939 431.418 437.222 431.687C435.504 432.009 433.786 432.143 432.069 432.089C430.351 432.036 428.687 431.767 427.077 431.284C425.466 430.855 424.017 430.237 422.729 429.432C421.44 428.627 420.394 427.58 419.589 426.292C418.783 425.004 418.139 423.608 417.656 422.105C417.227 420.602 416.932 419.046 416.77 417.435C416.609 415.825 416.502 414.322 416.448 412.926C416.234 409.223 416.234 405.573 416.448 401.976C416.448 401.278 416.448 400.5 416.448 399.641C416.448 398.729 416.502 397.843 416.609 396.984C416.77 396.125 417.012 395.347 417.334 394.649C417.656 393.898 418.193 393.334 418.944 392.958C420.555 392.099 422.031 392.046 423.373 392.797C424.768 393.549 425.6 395.105 425.869 397.467C426.03 398.702 426.084 400.071 426.03 401.574C426.03 403.077 426.084 404.445 426.191 405.68C426.245 407.505 426.298 409.491 426.352 411.638C426.406 413.732 426.701 415.61 427.238 417.274C427.828 418.938 428.767 420.2 430.056 421.059C431.398 421.864 433.384 421.891 436.014 421.139C437.248 420.763 438.054 419.824 438.429 418.321C438.859 416.818 439.074 414.59 439.074 411.638C439.074 410.35 439.047 408.927 438.993 407.371C438.939 405.814 438.912 404.284 438.912 402.781C438.912 401.225 438.939 399.802 438.993 398.514C439.1 397.172 439.261 396.152 439.476 395.454C439.744 394.488 440.308 393.763 441.167 393.28C442.026 392.797 442.938 392.556 443.905 392.556C444.871 392.502 445.783 392.69 446.642 393.119C447.501 393.549 448.091 394.247 448.413 395.213C448.735 396.072 448.95 397.172 449.058 398.514C449.219 399.802 449.326 401.225 449.38 402.781C449.433 404.284 449.433 405.841 449.38 407.451C449.38 409.008 449.353 410.484 449.299 411.88Z" fill="#26D32D"/>
<path d="M169.905 473.323C169.953 473.442 169.977 473.621 169.977 473.86C169.977 474.074 169.977 474.253 169.977 474.396C169.977 474.587 169.941 474.766 169.87 474.933C169.798 475.1 169.703 475.255 169.583 475.398C169.369 475.685 169.058 475.899 168.653 476.043C168.08 476.233 167.544 476.329 167.043 476.329C166.78 476.353 166.506 476.365 166.22 476.365C165.933 476.365 165.647 476.388 165.361 476.436H165.218C163.381 476.46 161.484 476.46 159.528 476.436C159.051 476.412 158.514 476.412 157.917 476.436C157.321 476.484 156.736 476.472 156.164 476.4C155.591 476.353 155.067 476.221 154.589 476.007C154.136 475.768 153.814 475.398 153.623 474.897C153.575 474.778 153.54 474.671 153.516 474.575C153.492 474.456 153.48 474.337 153.48 474.218C153.385 473.406 153.349 472.607 153.373 471.82C153.397 471.033 153.408 470.257 153.408 469.494L153.48 464.305V459.51C153.48 458.651 153.48 457.888 153.48 457.22C153.504 456.552 153.528 455.812 153.552 455.001V454.822C153.575 454.583 153.587 454.345 153.587 454.106C153.611 453.868 153.623 453.629 153.623 453.391C153.671 452.842 153.802 452.377 154.017 451.995C154.16 451.637 154.41 451.351 154.768 451.136C155.078 450.921 155.448 450.814 155.878 450.814C156.045 450.814 156.2 450.826 156.343 450.85C156.51 450.85 156.665 450.862 156.808 450.886C156.951 450.909 157.082 450.957 157.202 451.029C157.345 451.1 157.488 451.196 157.631 451.315C157.774 451.482 157.905 451.685 158.025 451.923C158.12 452.186 158.18 452.448 158.204 452.711C158.228 452.878 158.251 453.033 158.275 453.176C158.299 453.319 158.311 453.462 158.311 453.605C158.263 453.748 158.239 453.892 158.239 454.035C158.239 454.178 158.239 454.309 158.239 454.428V455.072L158.096 471.927L165.182 471.999H166.864C167.007 471.999 167.162 472.011 167.329 472.035C167.496 472.035 167.663 472.047 167.83 472.07C168.021 472.094 168.188 472.118 168.331 472.142C168.474 472.166 168.617 472.202 168.76 472.249C169.023 472.321 169.237 472.44 169.404 472.607C169.667 472.846 169.834 473.084 169.905 473.323ZM183.297 471.14C183.584 471.068 183.87 471.021 184.156 470.997C184.466 470.973 184.741 471.009 184.979 471.104C185.242 471.2 185.456 471.367 185.623 471.605C185.79 471.82 185.874 472.13 185.874 472.536C185.874 472.822 185.802 473.096 185.659 473.359C185.516 473.621 185.337 473.86 185.122 474.074C184.908 474.289 184.669 474.48 184.407 474.647C184.144 474.79 183.894 474.909 183.655 475.005C182.963 475.315 182.164 475.553 181.258 475.72C180.375 475.887 179.456 475.947 178.502 475.899C177.214 475.852 175.973 475.601 174.781 475.148C173.612 474.671 172.693 473.895 172.025 472.822C171.405 471.772 171.035 470.603 170.916 469.315C170.796 468.027 170.856 466.81 171.095 465.665C171.357 464.281 171.798 463.16 172.419 462.301C173.063 461.418 173.826 460.715 174.709 460.19C175.783 459.569 176.987 459.247 178.323 459.224C179.659 459.2 180.936 459.462 182.152 460.011C182.963 460.369 183.691 460.858 184.335 461.478C184.979 462.074 185.468 462.802 185.802 463.661C185.898 463.876 185.969 464.138 186.017 464.448C186.089 464.758 186.136 465.092 186.16 465.45C186.184 465.784 186.184 466.118 186.16 466.452C186.136 466.786 186.077 467.084 185.981 467.347C185.838 467.776 185.659 468.11 185.445 468.349C185.23 468.587 184.955 468.766 184.621 468.886C184.287 469.005 183.882 469.088 183.405 469.136C182.951 469.16 182.403 469.184 181.759 469.208C181.186 469.231 180.649 469.243 180.148 469.243C179.647 469.243 179.134 469.243 178.61 469.243C178.085 469.22 177.536 469.208 176.963 469.208C176.415 469.184 175.794 469.16 175.103 469.136C175.031 469.613 175.091 470.031 175.282 470.389C175.496 470.722 175.783 471.009 176.14 471.247C176.498 471.462 176.904 471.629 177.357 471.748C177.81 471.868 178.252 471.939 178.681 471.963C179.492 472.011 180.268 471.951 181.007 471.784C181.747 471.593 182.51 471.379 183.297 471.14ZM181.759 464.198C181.305 463.673 180.828 463.291 180.327 463.053C179.946 462.886 179.54 462.814 179.111 462.838C178.705 462.838 178.311 462.897 177.93 463.017C177.238 463.184 176.653 463.542 176.176 464.09C176.128 464.138 176.045 464.257 175.926 464.448C175.806 464.615 175.687 464.794 175.568 464.985C175.472 465.176 175.401 465.355 175.353 465.522C175.305 465.689 175.329 465.772 175.425 465.772H182.439C182.415 465.438 182.355 465.164 182.26 464.949C182.164 464.711 181.997 464.46 181.759 464.198ZM192.89 460.977C193.606 460.619 194.358 460.369 195.145 460.226C195.932 460.059 196.707 460.023 197.471 460.118C198.258 460.19 199.01 460.393 199.725 460.727C200.441 461.037 201.109 461.49 201.729 462.086C202.35 462.707 202.827 463.387 203.161 464.126C203.495 464.866 203.733 465.689 203.876 466.595C203.972 467.216 204.127 467.788 204.342 468.313C204.556 468.838 204.783 469.363 205.021 469.888C205.284 470.412 205.522 470.937 205.737 471.462C205.976 471.987 206.167 472.536 206.31 473.108C206.429 473.657 206.381 474.194 206.167 474.718C205.976 475.219 205.57 475.53 204.95 475.649C204.592 475.72 204.246 475.697 203.912 475.577C203.602 475.434 203.316 475.243 203.053 475.005C202.791 474.742 202.552 474.468 202.338 474.182C202.147 473.872 201.968 473.585 201.801 473.323C201.252 474.039 200.656 474.599 200.012 475.005C199.367 475.386 198.592 475.637 197.686 475.756C196.922 475.852 196.194 475.876 195.503 475.828C194.811 475.78 194.071 475.649 193.284 475.434C192.258 475.172 191.411 474.718 190.743 474.074C190.099 473.406 189.598 472.643 189.24 471.784C188.906 470.901 188.727 469.959 188.703 468.957C188.68 467.955 188.799 466.965 189.061 465.987C189.395 464.699 189.896 463.649 190.564 462.838C191.232 462.027 192.008 461.406 192.89 460.977ZM193.785 465.164C193.451 465.498 193.189 465.892 192.998 466.345C192.807 466.798 192.688 467.275 192.64 467.776C192.616 468.277 192.664 468.778 192.783 469.279C192.902 469.78 193.093 470.222 193.356 470.603C193.594 470.937 194 471.223 194.572 471.462C195.145 471.677 195.741 471.808 196.361 471.856C197.077 471.903 197.697 471.713 198.222 471.283C198.771 470.854 199.177 470.317 199.439 469.673C199.725 469.005 199.856 468.301 199.833 467.561C199.809 466.798 199.606 466.106 199.224 465.486C198.938 465.033 198.556 464.699 198.079 464.484C197.626 464.269 197.137 464.162 196.612 464.162C196.087 464.138 195.562 464.222 195.037 464.412C194.536 464.579 194.119 464.83 193.785 465.164ZM209.323 463.375C209.323 463.088 209.323 462.766 209.323 462.408C209.323 462.027 209.335 461.645 209.358 461.263C209.382 460.858 209.418 460.476 209.466 460.118C209.537 459.736 209.633 459.402 209.752 459.116C209.943 458.687 210.241 458.401 210.647 458.257C211.052 458.09 211.494 458.019 211.971 458.043C212.472 458.043 212.865 458.126 213.152 458.293C213.438 458.46 213.653 458.687 213.796 458.973C213.939 459.235 214.022 459.546 214.046 459.903C214.094 460.237 214.118 460.595 214.118 460.977C214.333 460.595 214.619 460.285 214.977 460.047C215.358 459.808 215.74 459.617 216.122 459.474C216.504 459.331 216.849 459.235 217.16 459.188C217.47 459.116 217.649 459.08 217.696 459.08C218.293 459.033 218.83 459.021 219.307 459.045C219.808 459.068 220.356 459.176 220.953 459.367C221.335 459.51 221.728 459.713 222.134 459.975C222.539 460.214 222.897 460.5 223.207 460.834C223.517 461.168 223.72 461.538 223.816 461.943C223.935 462.325 223.887 462.73 223.672 463.16C223.338 463.756 222.969 464.055 222.563 464.055C222.158 464.031 221.716 463.959 221.239 463.84C220.977 463.792 220.667 463.685 220.309 463.518C219.951 463.351 219.641 463.243 219.378 463.196C218.567 463.076 217.851 463.136 217.231 463.375C216.611 463.613 216.074 463.899 215.621 464.233C215.096 464.639 214.643 465.104 214.261 465.629V470.782C214.261 471.426 214.249 472.094 214.225 472.786C214.225 473.478 214.13 474.11 213.939 474.683C213.772 475.231 213.474 475.685 213.044 476.043C212.639 476.377 212.042 476.52 211.255 476.472C210.826 476.448 210.444 476.245 210.11 475.864C209.776 475.458 209.573 475.064 209.502 474.683C209.454 474.325 209.418 473.895 209.394 473.394C209.37 472.893 209.347 472.369 209.323 471.82C209.323 471.271 209.323 470.722 209.323 470.174C209.323 469.601 209.323 469.076 209.323 468.599V463.375ZM226.796 463.267C226.796 462.719 226.784 462.134 226.76 461.514C226.76 460.894 226.867 460.333 227.082 459.832C227.273 459.379 227.583 459.057 228.013 458.866C228.466 458.651 228.907 458.603 229.337 458.723C229.766 458.794 230.1 458.925 230.339 459.116C230.577 459.307 230.744 459.534 230.84 459.796C230.959 460.035 231.03 460.321 231.054 460.655C231.078 460.965 231.102 461.275 231.126 461.585C231.364 461.156 231.663 460.81 232.02 460.548C232.378 460.285 232.748 460.07 233.13 459.903C233.511 459.736 233.869 459.617 234.203 459.546C234.561 459.474 234.836 459.438 235.026 459.438C235.933 459.438 236.828 459.641 237.71 460.047C238.617 460.428 239.368 460.977 239.965 461.693C240.299 462.122 240.549 462.575 240.716 463.053C240.907 463.506 241.038 463.983 241.11 464.484C241.205 464.985 241.265 465.498 241.289 466.023C241.313 466.524 241.336 467.037 241.36 467.561C241.48 469.088 241.48 470.603 241.36 472.106C241.336 472.416 241.325 472.774 241.325 473.18C241.325 473.585 241.289 473.991 241.217 474.396C241.17 474.778 241.062 475.124 240.895 475.434C240.752 475.72 240.502 475.899 240.144 475.971C239.643 476.09 239.225 476.114 238.891 476.043C238.581 475.995 238.331 475.887 238.14 475.72C237.949 475.553 237.806 475.339 237.71 475.076C237.615 474.814 237.531 474.516 237.46 474.182C237.412 473.919 237.364 473.621 237.317 473.287C237.293 472.929 237.269 472.571 237.245 472.214C237.245 471.856 237.233 471.51 237.209 471.176C237.209 470.818 237.209 470.496 237.209 470.21C237.209 469.756 237.197 469.255 237.174 468.707C237.15 468.158 237.15 467.645 237.174 467.168C237.174 466.047 236.875 465.2 236.279 464.627C235.706 464.031 234.919 463.78 233.917 463.876C233.154 463.971 232.486 464.281 231.913 464.806C231.341 465.307 231.066 465.963 231.09 466.774C231.09 467.084 231.09 467.371 231.09 467.633C231.09 467.895 231.078 468.158 231.054 468.42C231.054 468.683 231.054 468.969 231.054 469.279C231.054 469.589 231.054 469.935 231.054 470.317C231.054 471.104 231.054 471.939 231.054 472.822C231.054 473.681 230.947 474.384 230.732 474.933C230.541 475.506 230.219 475.899 229.766 476.114C229.313 476.329 228.776 476.269 228.156 475.935C227.893 475.792 227.679 475.601 227.512 475.363C227.368 475.1 227.249 474.826 227.154 474.54C227.082 474.253 227.034 473.967 227.011 473.681C226.987 473.371 226.963 473.084 226.939 472.822C226.867 472.035 226.82 471.307 226.796 470.639C226.796 469.947 226.796 469.208 226.796 468.42V463.267ZM278.21 460.261C278.401 460.715 278.413 461.216 278.246 461.764C278.102 462.313 277.828 462.671 277.422 462.838C277.208 462.933 276.921 463.017 276.564 463.088C276.206 463.136 275.812 463.184 275.383 463.231C274.977 463.279 274.572 463.315 274.166 463.339C273.76 463.363 273.415 463.375 273.128 463.375C273.152 464.09 273.176 464.83 273.2 465.593C273.224 466.333 273.248 467.06 273.271 467.776C273.295 468.492 273.307 469.184 273.307 469.852C273.307 470.496 273.295 471.08 273.271 471.605C273.271 471.963 273.271 472.381 273.271 472.858C273.271 473.311 273.236 473.752 273.164 474.182C273.116 474.611 273.033 474.993 272.914 475.327C272.794 475.637 272.615 475.84 272.377 475.935C271.637 476.245 270.957 476.329 270.337 476.186C269.741 476.066 269.311 475.816 269.049 475.434C268.858 475.124 268.715 474.766 268.619 474.361C268.524 473.931 268.452 473.502 268.405 473.072C268.381 472.619 268.369 472.19 268.369 471.784C268.393 471.355 268.405 470.985 268.405 470.675C268.428 469.673 268.44 468.54 268.44 467.275C268.464 465.987 268.476 464.699 268.476 463.41H267.939C267.653 463.41 267.283 463.41 266.83 463.41C266.401 463.387 265.959 463.351 265.506 463.303C265.077 463.231 264.671 463.148 264.289 463.053C263.908 462.933 263.633 462.766 263.466 462.552C263.204 462.241 263.037 461.907 262.965 461.55C262.918 461.192 262.941 460.858 263.037 460.548C263.156 460.214 263.335 459.927 263.574 459.689C263.812 459.426 264.087 459.259 264.397 459.188C264.826 459.068 265.434 459.009 266.222 459.009C267.009 458.985 267.749 458.985 268.44 459.009C268.417 458.77 268.405 458.544 268.405 458.329C268.405 458.09 268.393 457.864 268.369 457.649C268.345 457.363 268.333 457.005 268.333 456.575C268.333 456.122 268.357 455.681 268.405 455.251C268.476 454.798 268.584 454.381 268.727 453.999C268.87 453.593 269.073 453.283 269.335 453.069C269.693 452.782 270.051 452.627 270.409 452.603C270.79 452.556 271.136 452.603 271.446 452.746C271.78 452.89 272.055 453.104 272.269 453.391C272.508 453.653 272.675 453.951 272.77 454.285C272.842 454.571 272.902 454.917 272.949 455.323C272.997 455.705 273.021 456.11 273.021 456.54C273.045 456.969 273.057 457.399 273.057 457.828C273.057 458.257 273.057 458.651 273.057 459.009H273.415C273.772 459.009 274.19 458.997 274.667 458.973C275.144 458.949 275.609 458.961 276.063 459.009C276.54 459.057 276.969 459.176 277.351 459.367C277.733 459.534 278.019 459.832 278.21 460.261ZM283.936 459.868C284.723 459.486 285.546 459.212 286.405 459.045C287.264 458.878 288.111 458.842 288.946 458.937C289.804 459.033 290.627 459.259 291.415 459.617C292.226 459.975 292.965 460.476 293.633 461.12C294.182 461.669 294.659 462.337 295.065 463.124C295.47 463.888 295.769 464.639 295.959 465.379C296.365 466.691 296.425 468.015 296.138 469.351C295.852 470.687 295.363 471.927 294.671 473.072C294.337 473.597 293.92 474.074 293.419 474.504C292.942 474.909 292.429 475.243 291.88 475.506C291.164 475.84 290.389 476.066 289.554 476.186C288.719 476.329 287.908 476.365 287.121 476.293C285.689 476.221 284.425 475.864 283.327 475.219C282.254 474.575 281.383 473.752 280.715 472.75C280.071 471.748 279.641 470.615 279.427 469.351C279.236 468.062 279.319 466.75 279.677 465.414C280.059 463.983 280.608 462.826 281.323 461.943C282.063 461.037 282.934 460.345 283.936 459.868ZM285.009 464.663C284.651 464.997 284.377 465.414 284.186 465.915C283.995 466.416 283.876 466.941 283.828 467.49C283.781 468.015 283.816 468.552 283.936 469.1C284.079 469.625 284.293 470.102 284.58 470.532C284.818 470.889 285.248 471.188 285.868 471.426C286.488 471.665 287.132 471.808 287.8 471.856C288.564 471.903 289.232 471.701 289.804 471.247C290.377 470.77 290.806 470.186 291.093 469.494C291.403 468.802 291.546 468.051 291.522 467.239C291.498 466.428 291.284 465.689 290.878 465.021C290.592 464.544 290.186 464.198 289.661 463.983C289.16 463.744 288.623 463.625 288.051 463.625C287.502 463.601 286.954 463.685 286.405 463.876C285.856 464.043 285.391 464.305 285.009 464.663ZM334.293 473.323C334.341 473.442 334.365 473.621 334.365 473.86C334.365 474.074 334.365 474.253 334.365 474.396C334.365 474.587 334.329 474.766 334.257 474.933C334.186 475.1 334.09 475.255 333.971 475.398C333.756 475.685 333.446 475.899 333.041 476.043C332.468 476.233 331.931 476.329 331.43 476.329C331.168 476.353 330.893 476.365 330.607 476.365C330.321 476.365 330.035 476.388 329.748 476.436H329.605C327.768 476.46 325.872 476.46 323.915 476.436C323.438 476.412 322.901 476.412 322.305 476.436C321.709 476.484 321.124 476.472 320.552 476.4C319.979 476.353 319.454 476.221 318.977 476.007C318.524 475.768 318.202 475.398 318.011 474.897C317.963 474.778 317.927 474.671 317.903 474.575C317.88 474.456 317.868 474.337 317.868 474.218C317.772 473.406 317.736 472.607 317.76 471.82C317.784 471.033 317.796 470.257 317.796 469.494L317.868 464.305V459.51C317.868 458.651 317.868 457.888 317.868 457.22C317.892 456.552 317.915 455.812 317.939 455.001V454.822C317.963 454.583 317.975 454.345 317.975 454.106C317.999 453.868 318.011 453.629 318.011 453.391C318.059 452.842 318.19 452.377 318.404 451.995C318.548 451.637 318.798 451.351 319.156 451.136C319.466 450.921 319.836 450.814 320.265 450.814C320.432 450.814 320.587 450.826 320.731 450.85C320.898 450.85 321.053 450.862 321.196 450.886C321.339 450.909 321.47 450.957 321.589 451.029C321.732 451.1 321.876 451.196 322.019 451.315C322.162 451.482 322.293 451.685 322.412 451.923C322.508 452.186 322.567 452.448 322.591 452.711C322.615 452.878 322.639 453.033 322.663 453.176C322.687 453.319 322.699 453.462 322.699 453.605C322.651 453.748 322.627 453.892 322.627 454.035C322.627 454.178 322.627 454.309 322.627 454.428V455.072L322.484 471.927L329.569 471.999H331.251C331.394 471.999 331.55 472.011 331.717 472.035C331.884 472.035 332.051 472.047 332.218 472.07C332.408 472.094 332.575 472.118 332.719 472.142C332.862 472.166 333.005 472.202 333.148 472.249C333.41 472.321 333.625 472.44 333.792 472.607C334.054 472.846 334.221 473.084 334.293 473.323ZM347.685 471.14C347.971 471.068 348.258 471.021 348.544 470.997C348.854 470.973 349.128 471.009 349.367 471.104C349.629 471.2 349.844 471.367 350.011 471.605C350.178 471.82 350.262 472.13 350.262 472.536C350.262 472.822 350.19 473.096 350.047 473.359C349.904 473.621 349.725 473.86 349.51 474.074C349.295 474.289 349.057 474.48 348.794 474.647C348.532 474.79 348.281 474.909 348.043 475.005C347.351 475.315 346.552 475.553 345.645 475.72C344.763 475.887 343.844 475.947 342.89 475.899C341.602 475.852 340.361 475.601 339.168 475.148C337.999 474.671 337.081 473.895 336.413 472.822C335.792 471.772 335.423 470.603 335.303 469.315C335.184 468.027 335.244 466.81 335.482 465.665C335.745 464.281 336.186 463.16 336.806 462.301C337.451 461.418 338.214 460.715 339.097 460.19C340.17 459.569 341.375 459.247 342.711 459.224C344.047 459.2 345.323 459.462 346.54 460.011C347.351 460.369 348.079 460.858 348.723 461.478C349.367 462.074 349.856 462.802 350.19 463.661C350.285 463.876 350.357 464.138 350.405 464.448C350.476 464.758 350.524 465.092 350.548 465.45C350.572 465.784 350.572 466.118 350.548 466.452C350.524 466.786 350.464 467.084 350.369 467.347C350.226 467.776 350.047 468.11 349.832 468.349C349.617 468.587 349.343 468.766 349.009 468.886C348.675 469.005 348.27 469.088 347.792 469.136C347.339 469.16 346.79 469.184 346.146 469.208C345.574 469.231 345.037 469.243 344.536 469.243C344.035 469.243 343.522 469.243 342.997 469.243C342.472 469.22 341.924 469.208 341.351 469.208C340.802 469.184 340.182 469.16 339.49 469.136C339.419 469.613 339.478 470.031 339.669 470.389C339.884 470.722 340.17 471.009 340.528 471.247C340.886 471.462 341.291 471.629 341.745 471.748C342.198 471.868 342.639 471.939 343.069 471.963C343.88 472.011 344.655 471.951 345.395 471.784C346.134 471.593 346.898 471.379 347.685 471.14ZM346.146 464.198C345.693 463.673 345.216 463.291 344.715 463.053C344.333 462.886 343.928 462.814 343.498 462.838C343.093 462.838 342.699 462.897 342.317 463.017C341.625 463.184 341.041 463.542 340.564 464.09C340.516 464.138 340.433 464.257 340.313 464.448C340.194 464.615 340.075 464.794 339.955 464.985C339.86 465.176 339.788 465.355 339.741 465.522C339.693 465.689 339.717 465.772 339.812 465.772H346.826C346.802 465.438 346.743 465.164 346.647 464.949C346.552 464.711 346.385 464.46 346.146 464.198ZM357.278 460.977C357.994 460.619 358.745 460.369 359.532 460.226C360.32 460.059 361.095 460.023 361.858 460.118C362.646 460.19 363.397 460.393 364.113 460.727C364.829 461.037 365.497 461.49 366.117 462.086C366.737 462.707 367.214 463.387 367.548 464.126C367.882 464.866 368.121 465.689 368.264 466.595C368.359 467.216 368.514 467.788 368.729 468.313C368.944 468.838 369.171 469.363 369.409 469.888C369.672 470.412 369.91 470.937 370.125 471.462C370.363 471.987 370.554 472.536 370.697 473.108C370.817 473.657 370.769 474.194 370.554 474.718C370.363 475.219 369.958 475.53 369.338 475.649C368.98 475.72 368.634 475.697 368.3 475.577C367.99 475.434 367.703 475.243 367.441 475.005C367.178 474.742 366.94 474.468 366.725 474.182C366.534 473.872 366.355 473.585 366.188 473.323C365.64 474.039 365.043 474.599 364.399 475.005C363.755 475.386 362.98 475.637 362.073 475.756C361.31 475.852 360.582 475.876 359.89 475.828C359.198 475.78 358.459 475.649 357.672 475.434C356.646 475.172 355.799 474.718 355.131 474.074C354.487 473.406 353.986 472.643 353.628 471.784C353.294 470.901 353.115 469.959 353.091 468.957C353.067 467.955 353.187 466.965 353.449 465.987C353.783 464.699 354.284 463.649 354.952 462.838C355.62 462.027 356.395 461.406 357.278 460.977ZM358.173 465.164C357.839 465.498 357.576 465.892 357.385 466.345C357.194 466.798 357.075 467.275 357.027 467.776C357.004 468.277 357.051 468.778 357.171 469.279C357.29 469.78 357.481 470.222 357.743 470.603C357.982 470.937 358.387 471.223 358.96 471.462C359.532 471.677 360.129 471.808 360.749 471.856C361.465 471.903 362.085 471.713 362.61 471.283C363.159 470.854 363.564 470.317 363.827 469.673C364.113 469.005 364.244 468.301 364.22 467.561C364.196 466.798 363.994 466.106 363.612 465.486C363.326 465.033 362.944 464.699 362.467 464.484C362.014 464.269 361.524 464.162 361 464.162C360.475 464.138 359.95 464.222 359.425 464.412C358.924 464.579 358.507 464.83 358.173 465.164ZM384.839 451.029C385.293 450.909 385.686 450.898 386.02 450.993C386.378 451.065 386.676 451.22 386.915 451.458C387.177 451.697 387.368 451.995 387.488 452.353C387.631 452.711 387.702 453.104 387.702 453.534C387.726 454.727 387.726 455.657 387.702 456.325C387.702 456.993 387.702 457.577 387.702 458.078V469.064C387.702 470.353 387.702 471.426 387.702 472.285C387.702 473.144 387.655 473.848 387.559 474.396C387.488 474.921 387.344 475.315 387.13 475.577C386.939 475.84 386.641 476.019 386.235 476.114C385.83 476.233 385.293 476.293 384.625 476.293C383.981 476.293 383.169 476.293 382.191 476.293C379.615 476.293 377.575 475.685 376.072 474.468C374.593 473.251 373.806 471.319 373.71 468.671C373.663 467.526 373.806 466.476 374.14 465.522C374.474 464.567 374.963 463.756 375.607 463.088C376.275 462.397 377.086 461.872 378.04 461.514C379.018 461.132 380.128 460.953 381.368 460.977H383.336V454.571C383.336 454.19 383.336 453.82 383.336 453.462C383.336 453.08 383.372 452.735 383.444 452.424C383.515 452.09 383.659 451.804 383.873 451.566C384.088 451.327 384.41 451.148 384.839 451.029ZM378.613 470.889C379.114 471.581 380.02 471.963 381.333 472.035C381.595 472.058 381.845 472.07 382.084 472.07C382.323 472.047 382.537 472.011 382.728 471.963C382.943 471.939 383.146 471.903 383.336 471.856V465.235C382.501 465.092 381.738 465.009 381.046 464.985C380.378 464.937 379.71 465.176 379.042 465.701C378.684 465.987 378.41 466.357 378.219 466.81C378.028 467.239 377.921 467.705 377.897 468.206C377.873 468.683 377.921 469.16 378.04 469.637C378.16 470.114 378.35 470.532 378.613 470.889Z" fill="#0047FF"/>
</svg>
